<svg xmlns="http://www.w3.org/2000/svg" viewBox="0 0 1200 280" role="img" aria-label="ctvlm — agentic radiology report generator">
<defs>
<linearGradient id="bg" x1="0" y1="0" x2="1" y2="1">
<stop offset="0%" stop-color="#1e3a8a"/>
<stop offset="100%" stop-color="#3b82f6"/>
</linearGradient>
<linearGradient id="accent" x1="0" y1="0" x2="1" y2="0">
<stop offset="0%" stop-color="#fbbf24"/>
<stop offset="100%" stop-color="#f59e0b"/>
</linearGradient>
<filter id="glow" x="-50%" y="-50%" width="200%" height="200%">
<feGaussianBlur stdDeviation="3" result="b"/>
<feMerge><feMergeNode in="b"/><feMergeNode in="SourceGraphic"/></feMerge>
</filter>
</defs>
<rect width="1200" height="280" fill="url(#bg)"/>
<g opacity="0.10" stroke="white" stroke-width="1" fill="none">
<circle cx="100" cy="60" r="40"/><circle cx="100" cy="60" r="65"/><circle cx="100" cy="60" r="90"/>
<circle cx="1100" cy="220" r="55"/><circle cx="1100" cy="220" r="85"/>
<circle cx="950" cy="50" r="25"/><circle cx="950" cy="50" r="45"/>
</g>
<g transform="translate(60,110)">
<text x="0" y="0" font-family="ui-sans-serif,system-ui,Helvetica,Arial" font-size="68" font-weight="700" fill="white" letter-spacing="-2">🫁 ctvlm</text>
<text x="0" y="48" font-family="ui-sans-serif,system-ui,Helvetica,Arial" font-size="22" fill="#dbeafe" letter-spacing="0.5">Agentic radiology report generator for CT abdomen-pelvis</text>
<text x="0" y="86" font-family="ui-sans-serif,system-ui,Helvetica,Arial" font-size="15" fill="#bfdbfe" letter-spacing="0.5">Two vision encoders · one MLP · 220 RATE findings · deterministic, auditable, template-only</text>
</g>
<g transform="translate(60,236)" font-family="ui-sans-serif,system-ui,Helvetica,Arial" font-size="13" font-weight="600">
<g transform="translate(0,0)">
<rect x="0" y="-14" width="68" height="22" rx="11" fill="white" opacity="0.18"/>
<text x="34" y="2" text-anchor="middle" fill="white">MIT</text>
</g>
<g transform="translate(80,0)">
<rect x="0" y="-14" width="110" height="22" rx="11" fill="white" opacity="0.18"/>
<text x="55" y="2" text-anchor="middle" fill="white">CUDA 12.4</text>
</g>
<g transform="translate(202,0)">
<rect x="0" y="-14" width="100" height="22" rx="11" fill="white" opacity="0.18"/>
<text x="50" y="2" text-anchor="middle" fill="white">Python 3.11+</text>
</g>
<g transform="translate(314,0)">
<rect x="0" y="-14" width="180" height="22" rx="11" fill="url(#accent)"/>
<text x="90" y="2" text-anchor="middle" fill="#7c2d12">Research only · NOT FDA-cleared</text>
</g>
</g>
</svg>
