<svg xmlns="http://www.w3.org/2000/svg" viewBox="0 0 1100 660" role="img" aria-label="Sample ctvlm structured FINDINGS output for study AC421363f">
<defs>
<linearGradient id="header" x1="0" y1="0" x2="1" y2="1">
<stop offset="0%" stop-color="#1e3a8a"/><stop offset="100%" stop-color="#3b82f6"/>
</linearGradient>
<filter id="shadow" x="-10%" y="-10%" width="120%" height="120%">
<feGaussianBlur in="SourceAlpha" stdDeviation="3"/>
<feOffset dx="0" dy="2" result="off"/>
<feComponentTransfer><feFuncA type="linear" slope="0.15"/></feComponentTransfer>
<feMerge><feMergeNode/><feMergeNode in="SourceGraphic"/></feMerge>
</filter>
</defs>
<style>
.t { font-family: ui-sans-serif,system-ui,Helvetica,Arial; }
.mono { font-family: ui-monospace,SFMono-Regular,Menlo,Consolas,monospace; }
.section { font-size: 14px; font-weight: 700; fill: #0f172a; }
.finding-name { font-size: 14px; font-weight: 600; fill: #1e293b; }
.sentence { font-size: 12.5px; fill: #334155; }
.muted { font-size: 11px; fill: #64748b; }
.tag-A { fill: #166534; }
.tag-A-bg { fill: #dcfce7; }
.tag-B { fill: #3730a3; }
.tag-B-bg { fill: #e0e7ff; }
.prob-hi-bg { fill: #fee2e2; }
.prob-hi { fill: #991b1b; }
.prob-md-bg { fill: #fef3c7; }
.prob-md { fill: #92400e; }
.prob-lo-bg { fill: #ecfdf5; }
.prob-lo { fill: #065f46; }
</style>
<rect width="1100" height="660" fill="#f3f5f8"/>
<!-- Browser chrome -->
<g transform="translate(40,30)" filter="url(#shadow)">
<rect x="0" y="0" width="1020" height="600" rx="12" fill="white"/>
<rect x="0" y="0" width="1020" height="40" rx="12" fill="#f1f5f9"/>
<rect x="0" y="28" width="1020" height="12" fill="#f1f5f9"/>
<circle cx="20" cy="20" r="6" fill="#ef4444"/>
<circle cx="40" cy="20" r="6" fill="#f59e0b"/>
<circle cx="60" cy="20" r="6" fill="#22c55e"/>
<rect x="240" y="10" width="540" height="20" rx="10" fill="white" stroke="#cbd5e1"/>
<text x="510" y="24" text-anchor="middle" class="t mono" font-size="11" fill="#64748b">localhost:8501 — ctvlm</text>
<!-- Header -->
<g transform="translate(20,60)">
<rect x="0" y="0" width="980" height="78" rx="10" fill="url(#header)"/>
<text x="22" y="36" class="t" font-size="24" font-weight="700" fill="white">🫁 ctvlm</text>
<text x="22" y="58" class="t" font-size="13" fill="#dbeafe">Agentic radiology report generator for CT abdomen-pelvis · 220 RATE findings</text>
</g>
<!-- Tab bar -->
<g transform="translate(20,154)">
<rect x="0" y="0" width="200" height="32" rx="6" fill="#3b82f6"/>
<text x="100" y="20" text-anchor="middle" class="t" font-size="12" font-weight="600" fill="white">🩻 Demo studies</text>
<text x="240" y="20" text-anchor="middle" class="t" font-size="12" font-weight="500" fill="#64748b">📤 Upload DICOM</text>
<text x="395" y="20" text-anchor="middle" class="t" font-size="12" font-weight="500" fill="#64748b">🧭 All 220 findings</text>
<text x="540" y="20" text-anchor="middle" class="t" font-size="12" font-weight="500" fill="#64748b">ℹ️ About</text>
</g>
<!-- Title row -->
<g transform="translate(20,202)">
<text x="0" y="14" class="t section">Structured FINDINGS — AC421363f</text>
<text x="0" y="32" class="t muted">Encoder: merlin+pillar0_L2 · 10 positives (3 Tier A) · 52 ms</text>
</g>
<!-- Cards -->
<g transform="translate(20,254)">
<!-- Card 1: Pleural effusion -->
<g transform="translate(0,0)">
<rect x="0" y="0" width="600" height="64" rx="8" fill="white" stroke="#e2e8f0"/>
<rect x="0" y="0" width="4" height="64" fill="#3b82f6"/>
<text x="18" y="22" class="t finding-name">Pleural Effusion</text>
<rect x="170" y="9" width="60" height="18" rx="9" class="tag-A-bg"/>
<text x="200" y="22" text-anchor="middle" class="t" font-size="11" font-weight="700" class2="tag-A">Tier A</text>
<rect x="238" y="9" width="56" height="18" rx="9" class="prob-hi-bg"/>
<text x="266" y="22" text-anchor="middle" class="t" font-size="11" font-weight="700" class2="prob-hi">p=0.97</text>
<text x="18" y="48" class="t sentence">Thorax (visible): left-sided pleural effusion at the lung base (axial slice 261).</text>
</g>
<!-- Card 2: Aortic atherosclerosis -->
<g transform="translate(0,72)">
<rect x="0" y="0" width="600" height="64" rx="8" fill="white" stroke="#e2e8f0"/>
<rect x="0" y="0" width="4" height="64" fill="#3b82f6"/>
<text x="18" y="22" class="t finding-name">Aortic Atherosclerosis</text>
<rect x="210" y="9" width="60" height="18" rx="9" class="tag-A-bg"/>
<text x="240" y="22" text-anchor="middle" class="t" font-size="11" font-weight="700">Tier A</text>
<rect x="278" y="9" width="56" height="18" rx="9" class="prob-hi-bg"/>
<text x="306" y="22" text-anchor="middle" class="t" font-size="11" font-weight="700">p=0.93</text>
<text x="18" y="48" class="t sentence">Abdominal aorta: mural calcifications throughout, compatible with aortic atherosclerosis.</text>
</g>
<!-- Card 3: Osteopenia -->
<g transform="translate(0,144)">
<rect x="0" y="0" width="600" height="64" rx="8" fill="white" stroke="#e2e8f0"/>
<rect x="0" y="0" width="4" height="64" fill="#3b82f6"/>
<text x="18" y="22" class="t finding-name">Osteopenia</text>
<rect x="113" y="9" width="60" height="18" rx="9" class="tag-A-bg"/>
<text x="143" y="22" text-anchor="middle" class="t" font-size="11" font-weight="700">Tier A</text>
<rect x="181" y="9" width="56" height="18" rx="9" class="prob-hi-bg"/>
<text x="209" y="22" text-anchor="middle" class="t" font-size="11" font-weight="700">p=0.94</text>
<text x="18" y="48" class="t sentence">Musculoskeletal: generalized osteopenia of the visualised skeleton.</text>
</g>
<!-- Card 4: simple renal cyst -->
<g transform="translate(0,216)">
<rect x="0" y="0" width="600" height="64" rx="8" fill="white" stroke="#e2e8f0"/>
<rect x="0" y="0" width="4" height="64" fill="#3b82f6"/>
<text x="18" y="22" class="t finding-name">Simple Renal Cyst</text>
<rect x="170" y="9" width="60" height="18" rx="9" class="tag-B-bg"/>
<text x="200" y="22" text-anchor="middle" class="t" font-size="11" font-weight="700">Tier B</text>
<rect x="238" y="9" width="56" height="18" rx="9" class="prob-md-bg"/>
<text x="266" y="22" text-anchor="middle" class="t" font-size="11" font-weight="700">p=0.89</text>
<text x="18" y="48" class="t sentence">Genitourinary: simple renal cyst (axial slice 183).</text>
</g>
<!-- Card 5: Adrenal mass -->
<g transform="translate(0,288)">
<rect x="0" y="0" width="600" height="64" rx="8" fill="white" stroke="#e2e8f0"/>
<rect x="0" y="0" width="4" height="64" fill="#3b82f6"/>
<text x="18" y="22" class="t finding-name">Adrenal Mass</text>
<rect x="130" y="9" width="60" height="18" rx="9" class="tag-B-bg"/>
<text x="160" y="22" text-anchor="middle" class="t" font-size="11" font-weight="700">Tier B</text>
<rect x="198" y="9" width="56" height="18" rx="9" class="prob-md-bg"/>
<text x="226" y="22" text-anchor="middle" class="t" font-size="11" font-weight="700">p=0.80</text>
<text x="18" y="48" class="t sentence">Adrenal: adrenal mass (axial slice 255).</text>
</g>
</g>
<!-- Right panel -->
<g transform="translate(640,254)">
<text x="0" y="14" class="t section">Compared to ground truth</text>
<g transform="translate(0,28)">
<rect x="0" y="0" width="105" height="56" rx="8" fill="#dcfce7"/>
<text x="52" y="22" text-anchor="middle" class="t muted" fill="#065f46">TP</text>
<text x="52" y="44" text-anchor="middle" class="t" font-size="22" font-weight="700" fill="#166534">8</text>
</g>
<g transform="translate(120,28)">
<rect x="0" y="0" width="105" height="56" rx="8" fill="#fef3c7"/>
<text x="52" y="22" text-anchor="middle" class="t muted" fill="#92400e">FP</text>
<text x="52" y="44" text-anchor="middle" class="t" font-size="22" font-weight="700" fill="#92400e">2</text>
</g>
<g transform="translate(240,28)">
<rect x="0" y="0" width="105" height="56" rx="8" fill="#fee2e2"/>
<text x="52" y="22" text-anchor="middle" class="t muted" fill="#991b1b">FN</text>
<text x="52" y="44" text-anchor="middle" class="t" font-size="22" font-weight="700" fill="#991b1b">2</text>
</g>
<text x="0" y="116" class="t section">Top probabilities</text>
<g transform="translate(0,130)">
<rect x="0" y="0" width="345" height="190" rx="6" fill="white" stroke="#e2e8f0"/>
<g class="t" font-size="11">
<g transform="translate(10,18)"><text fill="#334155">pleural_effusion</text><rect x="170" y="-9" width="160" height="12" rx="6" fill="#dbeafe"/><rect x="170" y="-9" width="155" height="12" rx="6" fill="#3b82f6"/><text x="335" y="2" text-anchor="end" fill="white" font-weight="600" font-size="10">0.97</text></g>
<g transform="translate(10,42)"><text fill="#334155">osteopenia</text><rect x="170" y="-9" width="160" height="12" rx="6" fill="#dbeafe"/><rect x="170" y="-9" width="150" height="12" rx="6" fill="#3b82f6"/><text x="330" y="2" text-anchor="end" fill="white" font-weight="600" font-size="10">0.94</text></g>
<g transform="translate(10,66)"><text fill="#334155">aortic_atherosclerosis</text><rect x="170" y="-9" width="160" height="12" rx="6" fill="#dbeafe"/><rect x="170" y="-9" width="148" height="12" rx="6" fill="#3b82f6"/><text x="328" y="2" text-anchor="end" fill="white" font-weight="600" font-size="10">0.93</text></g>
<g transform="translate(10,90)"><text fill="#334155">cardiomegaly</text><rect x="170" y="-9" width="160" height="12" rx="6" fill="#dbeafe"/><rect x="170" y="-9" width="147" height="12" rx="6" fill="#3b82f6"/><text x="327" y="2" text-anchor="end" fill="white" font-weight="600" font-size="10">0.92</text></g>
<g transform="translate(10,114)"><text fill="#334155">simple_renal_cyst</text><rect x="170" y="-9" width="160" height="12" rx="6" fill="#dbeafe"/><rect x="170" y="-9" width="142" height="12" rx="6" fill="#3b82f6"/><text x="322" y="2" text-anchor="end" fill="white" font-weight="600" font-size="10">0.89</text></g>
<g transform="translate(10,138)"><text fill="#334155">adrenal_mass</text><rect x="170" y="-9" width="160" height="12" rx="6" fill="#dbeafe"/><rect x="170" y="-9" width="128" height="12" rx="6" fill="#3b82f6"/><text x="308" y="2" text-anchor="end" fill="white" font-weight="600" font-size="10">0.80</text></g>
<g transform="translate(10,162)"><text fill="#334155">spinal_fracture</text><rect x="170" y="-9" width="160" height="12" rx="6" fill="#dbeafe"/><rect x="170" y="-9" width="118" height="12" rx="6" fill="#3b82f6"/><text x="298" y="2" text-anchor="end" fill="white" font-weight="600" font-size="10">0.74</text></g>
</g>
</g>
</g>
</g>
</svg>
